<svg width="12" height="12" viewBox="0 0 12 12" fill="none" xmlns="http://www.w3.org/2000/svg">
<path d="M11.2071 9.79289C11.5976 10.1834 11.5976 10.8166 11.2071 11.2071C10.8166 11.5976 10.1834 11.5976 9.79289 11.2071L11.2071 9.79289ZM0.792893 2.20711C0.402369 1.81658 0.402369 1.18342 0.792893 0.792893C1.18342 0.402369 1.81658 0.402369 2.20711 0.792893L0.792893 2.20711ZM2.20711 11.2071C1.81658 11.5976 1.18342 11.5976 0.792893 11.2071C0.402369 10.8166 0.402369 10.1834 0.792893 9.79289L2.20711 11.2071ZM9.79289 0.792893C10.1834 0.402369 10.8166 0.402369 11.2071 0.792893C11.5976 1.18342 11.5976 1.81658 11.2071 2.20711L9.79289 0.792893ZM9.79289 11.2071L0.792893 2.20711L2.20711 0.792893L11.2071 9.79289L9.79289 11.2071ZM0.792893 9.79289L9.79289 0.792893L11.2071 2.20711L2.20711 11.2071L0.792893 9.79289Z" fill="black"/>
</svg>
